<?xml version="1.0" standalone="no"?>
<!DOCTYPE svg PUBLIC "-//W3C//DTD SVG 20010904//EN"
 "http://www.w3.org/TR/2001/REC-SVG-20010904/DTD/svg10.dtd">
<svg version="1.0" xmlns="http://www.w3.org/2000/svg"
 width="700.000000pt" height="700.000000pt" viewBox="0 0 700.000000 700.000000"
 preserveAspectRatio="xMidYMid meet">
<metadata>
Created by potrace 1.14, written by Peter Selinger 2001-2017
</metadata>
<g transform="translate(0.000000,700.000000) scale(0.100000,-0.100000)"
fill="#000000" stroke="none">
<path d="M3365 6987 c-34 -7 -97 -30 -140 -50 -147 -70 -250 -173 -319 -318
l-26 -56 -248 0 c-137 0 -262 -3 -278 -7 -57 -15 -112 -58 -139 -112 l-26 -52
0 -478 c0 -290 4 -492 10 -511 14 -48 48 -91 95 -121 l41 -27 1165 0 1165 0
41 27 c52 33 87 81 101 138 2 8 4 229 4 491 1 450 0 479 -18 520 -23 52 -77
102 -129 119 -25 8 -120 13 -290 14 l-253 1 -35 70 c-82 164 -230 287 -406
339 -73 22 -239 29 -315 13z"/>
<path d="M1247 6119 c-154 -17 -312 -158 -358 -319 -17 -62 -21 -5365 -3
-5451 10 -53 45 -138 69 -167 49 -62 108 -109 174 -141 l76 -36 2285 0 c2221
0 2287 1 2341 19 125 43 226 145 271 276 l22 65 1 2670 c0 1469 -3 2695 -7
2725 -13 85 -69 189 -134 249 -109 100 -178 116 -495 116 l-234 0 -5 -390 -5
-390 -27 -76 c-82 -232 -257 -390 -487 -439 -81 -17 -150 -18 -1256 -16 -643
1 -1183 6 -1200 9 -59 14 -151 51 -200 81 -51 31 -55 34 -112 81 -44 36 -116
134 -147 199 -57 121 -60 141 -66 556 l-5 385 -220 0 c-121 0 -246 -3 -278 -6z
m2133 -1773 c92 -43 138 -150 110 -254 -12 -43 -52 -86 -479 -515 -278 -279
-482 -477 -506 -489 -61 -32 -148 -30 -205 4 -25 15 -149 132 -277 260 -253
254 -277 287 -272 376 8 158 177 255 316 183 21 -11 105 -87 188 -170 l150
-150 380 378 c378 377 391 388 470 404 31 6 76 -3 125 -27z m1753 -435 c56
-34 85 -69 103 -125 34 -102 -9 -208 -105 -258 l-53 -28 -479 0 c-427 0 -483
2 -521 17 -57 23 -95 59 -119 110 -55 121 12 268 139 302 15 4 245 7 512 7
l485 -1 38 -24z m-1752 -1311 c107 -55 147 -188 90 -298 -25 -47 -924 -944
-970 -967 -47 -23 -113 -27 -168 -8 -40 14 -85 54 -286 252 -131 130 -249 255
-263 277 -14 23 -27 65 -31 93 -19 163 160 287 312 215 17 -8 100 -84 185
-169 l155 -155 380 379 c350 349 384 380 429 393 60 18 117 13 167 -12z m1723
-426 c114 -39 176 -176 128 -284 -24 -56 -56 -92 -102 -116 -33 -18 -66 -19
-540 -19 l-505 0 -42 28 c-155 100 -129 332 44 392 59 20 957 19 1017 -1z"/>
</g>
</svg>
